<svg width="1600" height="900" viewBox="0 0 1600 900" fill="none" xmlns="http://www.w3.org/2000/svg">
  <defs>
    <linearGradient id="bg" x1="0" y1="0" x2="1600" y2="900" gradientUnits="userSpaceOnUse">
      <stop stop-color="#09121F"/>
      <stop offset="1" stop-color="#102C3D"/>
    </linearGradient>
    <linearGradient id="panel" x1="0" y1="0" x2="1" y2="1">
      <stop stop-color="#17384C"/>
      <stop offset="1" stop-color="#0C1C27"/>
    </linearGradient>
    <linearGradient id="accent" x1="0" y1="0" x2="1" y2="1">
      <stop stop-color="#F4A261"/>
      <stop offset="1" stop-color="#E76F51"/>
    </linearGradient>
  </defs>
  <rect width="1600" height="900" fill="url(#bg)"/>
  <circle cx="1295" cy="160" r="210" fill="#1D4F68" opacity="0.18"/>
  <circle cx="250" cy="760" r="260" fill="#F4A261" opacity="0.08"/>
  <rect x="92" y="96" width="1416" height="708" rx="36" fill="url(#panel)" stroke="#3C6A80" stroke-opacity="0.4"/>
  <rect x="126" y="132" width="530" height="44" rx="22" fill="#10212C"/>
  <circle cx="156" cy="154" r="8" fill="#E76F51"/>
  <circle cx="182" cy="154" r="8" fill="#F4A261"/>
  <circle cx="208" cy="154" r="8" fill="#2A9D8F"/>

  <text x="126" y="286" fill="#F5F7FA" font-family="Georgia, 'Times New Roman', serif" font-size="82" font-weight="700">Vertical</text>
  <text x="126" y="370" fill="#F5F7FA" font-family="Georgia, 'Times New Roman', serif" font-size="82" font-weight="700">Agent Forge</text>
  <text x="126" y="438" fill="#B7CAD5" font-family="Arial, Helvetica, sans-serif" font-size="22">
    <tspan x="126" dy="0">Production-grade self-improvement</tspan>
    <tspan x="126" dy="30">control plane for OpenClaw</tspan>
    <tspan x="126" dy="30">vertical agents.</tspan>
  </text>

  <rect x="126" y="536" width="294" height="62" rx="18" fill="url(#accent)"/>
  <text x="158" y="574" fill="#09121F" font-family="Arial, Helvetica, sans-serif" font-size="18" font-weight="700">Hot Plug Into OpenClaw</text>
  <rect x="438" y="536" width="274" height="62" rx="18" fill="#163447" stroke="#5C8598"/>
  <text x="472" y="574" fill="#E5EEF5" font-family="Arial, Helvetica, sans-serif" font-size="18" font-weight="700">Evidence-First Release</text>

  <rect x="946" y="166" width="430" height="154" rx="26" fill="#0E2431" stroke="#46687C"/>
  <text x="980" y="218" fill="#F5F7FA" font-family="Arial, Helvetica, sans-serif" font-size="28" font-weight="700">User Delivery</text>
  <text x="980" y="260" fill="#B7CAD5" font-family="Arial, Helvetica, sans-serif" font-size="18">
    <tspan x="980" dy="0">app-main handles the request,</tspan>
    <tspan x="980" dy="28">then opens a case when</tspan>
    <tspan x="980" dy="28">quality drifts.</tspan>
  </text>

  <rect x="946" y="354" width="430" height="154" rx="26" fill="#0E2431" stroke="#46687C"/>
  <text x="980" y="406" fill="#F5F7FA" font-family="Arial, Helvetica, sans-serif" font-size="28" font-weight="700">Forge Loop</text>
  <text x="980" y="448" fill="#B7CAD5" font-family="Arial, Helvetica, sans-serif" font-size="18">
    <tspan x="980" dy="0">Worker, Critic, Adversary,</tspan>
    <tspan x="980" dy="28">Promoter, and Archivist run</tspan>
    <tspan x="980" dy="28">as bounded subagents.</tspan>
  </text>

  <rect x="946" y="542" width="430" height="154" rx="26" fill="#0E2431" stroke="#46687C"/>
  <text x="980" y="594" fill="#F5F7FA" font-family="Arial, Helvetica, sans-serif" font-size="28" font-weight="700">Durable Assets</text>
  <text x="980" y="636" fill="#B7CAD5" font-family="Arial, Helvetica, sans-serif" font-size="18">
    <tspan x="980" dy="0">Skills, playbooks, memory,</tspan>
    <tspan x="980" dy="28">release notes, and rollback</tspan>
    <tspan x="980" dy="28">plans stay traceable.</tspan>
  </text>

  <path d="M780 242C840 242 874 242 926 242" stroke="#F4A261" stroke-width="4" stroke-linecap="round"/>
  <path d="M780 430C840 430 874 430 926 430" stroke="#F4A261" stroke-width="4" stroke-linecap="round"/>
  <path d="M780 618C840 618 874 618 926 618" stroke="#F4A261" stroke-width="4" stroke-linecap="round"/>
</svg>
